<?xml version="1.0" encoding="UTF-8"?>
<svg version="1.1" viewBox="0 0 2048 382" width="300" height="60" xmlns="http://www.w3.org/2000/svg">
<path transform="translate(146,74)" d="m0 0h39l16 27 3 5 15 9 3 1h37l11-6 8-6 16-28 2-2h38l6 9 12 21 1 1v5l-5 8-8 14-6 9h-25l-15 1-14 8-14 24-5 9-1 63-2 20-4 15-7 16-9 13-9 11-8 7-13 9-12 6-18 6-11 2-17 1-18-2-16-5-14-6-12-8-14-12-10-12-9-15-6-16-4-19v-21l4-20 6-16 8-14 9-11 7-8 13-10 16-9 15-5 13-3h7l-11-20-7-12 7-14zm1 121-12 3-11 6-10 9-8 14-3 11-1 10 3 14 7 14 10 10 8 5 10 4 6 1h16l10-3 11-6 10-9 6-10 4-11 1-6v-13l-4-13-6-10-8-9-12-7-9-3-5-1z" fill="#586EFD"/>
<path transform="translate(1717,74)" d="m0 0h38l5 8 13 22 6 5 12 7h38l11-6 6-4 7-10 12-21 1-1h38l7 10 10 18 2 3-1 6-13 23-3 6h7l19 5 12 5 11 6 12 9 12 12 10 14 7 14 5 15 3 19v15l-3 17-6 18-9 16-13 16-12 10-11 7-15 7-17 5-18 2-18-1-17-4-17-7-14-9-14-12-12-15-9-17-6-19-2-15-1-70-13-23-7-10-13-8-4-1h-36l-4-5-13-23-3-6 16-28zm174 121-12 3-11 6-10 9-6 10-4 10-1 4v16l3 12 7 12 9 9 10 6 8 3 6 1h16l12-4 9-5 10-9 7-11 3-9 1-5v-14l-3-12-6-11-8-9-11-7-11-4-5-1z" fill="#586EFD"/>
<path transform="translate(758,40)" d="m0 0h105l10 3 8 7 4 6 2 6v43l-4 9-3 4 1 4 5 8 1 3v43l-3 9-8 9-8 4h-111v-27l101-1 1-36h-101l-1-1v-27l101-1 1-37h-102v-27z" fill="#4FAFFA"/>
<path transform="translate(1468,40)" d="m0 0h28l1 1v65h72v-65l1-1h28v158h-28l-1-2 1-62h-73v64h-29z" fill="#4FAFFA"/>
<path transform="translate(476,40)" d="m0 0h92l1 1-1 27h-87l1 102 86 1v27h-97l-9-5-6-7-3-6-1-6v-110l3-9 4-6 8-6z" fill="#4FAFFA"/>
<path transform="translate(1182,40)" d="m0 0h92l1 1v26l-1 1h-87v103h87l1 1v25l-1 1h-97l-8-5-7-8-3-8v-117l4-8 7-7 8-4z" fill="#4FAFFA"/>
<path transform="translate(1337,40)" d="m0 0h92l1 2v25l-1 1h-87v103h87l1 1v25l-1 1h-97l-8-5-7-8-3-7v-119l6-10 10-7z" fill="#4FAFFA"/>
<path transform="translate(995,40)" d="m0 0h129l1 1v26l-1 1h-51v130h-28v-130h-51v-27z" fill="#4FAFFA"/>
<path transform="translate(607,40)" d="m0 0h28v131h87l1 1v25l-1 1h-96l-8-4-7-7-4-9-1-8v-129z" fill="#4FAFFA"/>
<path transform="translate(307,276)" d="m0 0h13l3 7 12 45 3 3 2-12 11-41 2-2h12l2 3 11 47 1 5h2l4-16 11-37 3-2 11 1-2 9-17 59-4 10-1 1h-11l-4-4-9-35-3-11-1-1-5 18-7 28-3 5h-11l-3-2-9-30-10-35-6-4 1-8z" fill="#7A4CEA"/>
<path transform="translate(82,37)" d="m0 0h26l4 1 14 24 3 5-2 5-14 25-1 1h-36l-8-13-9-16 2-6 14-24z" fill="#794DEA"/>
<path transform="translate(1945,37)" d="m0 0h26l5 2 14 25 2 5-12 21-5 8h-36l-8-13-9-16 1-4 15-26z" fill="#7A4DEA"/>
<path transform="translate(1663,37)" d="m0 0h19l5 2 13 23 3 5-2 5-14 25-1 1h-36l-14-24-3-5 2-5 11-20 4-6z" fill="#50AFFA"/>
<path transform="translate(377,37)" d="m0 0 24 1 15 26 2 4-11 20-6 10h-36l-8-13-9-16 1-5 16-26z" fill="#50AFFA"/>
<path transform="translate(1571,276)" d="m0 0h19l3 5 24 48 1 1v-31l1-23h12l1 1v78l-1 1h-14l-6-8-22-44-1-1-2 53h-12l-1-1-1-67-3-3 1-8z" fill="#794DEA"/>
<path transform="translate(583,276)" d="m0 0h33l9 3 6 7 2 5v13l-4 8v4l5 5 3 6v14l-5 8-6 5-10 2h-31l-1-1v-68l-4-1-1-4 2-5zm15 11-2 4v12l2 7h11l7-2 3-3 1-3v-7l-3-6-3-2zm-1 33-1 3v12l1 10h19l5-3 4-8-1-6-4-6-4-2z" fill="#794DEA"/>
<path transform="translate(1465,276)" d="m0 0h13l11 3 11 8 7 11 3 14v8l-3 14-6 9-9 8-10 4-6 1h-10l-12-3-10-7-6-8-4-9-1-5v-16l3-10 6-10 9-7 10-4zm0 12-10 5-6 8-3 11v9l3 10 6 8 7 4 5 1h8l9-3 8-7 4-10v-16l-4-10-8-7-7-3z" fill="#794DEA"/>
<path transform="translate(912,276)" d="m0 0h13l10 3 8 5 7 7 5 11 2 16-2 12-6 12-7 7-10 5-9 2h-10l-12-3-10-7-6-8-4-9-1-5v-16l3-10 6-10 7-6 8-4zm0 12-10 5-5 6-4 11v13l4 10 5 6 7 4 4 1h10l10-4 8-9 2-7v-16l-4-9-6-7-10-4z" fill="#794CEA"/>
<path transform="translate(1123,276)" d="m0 0h16l1 1v53l3 8 5 4 3 1h9l7-4 3-5 1-7 1-51h12l1 1v56l-4 10-6 7-10 5-6 1h-8l-10-3-6-4-6-8-3-8-1-45-3-3z" fill="#7A4CEA"/>
<path transform="translate(469,276)" d="m0 0h49l1 1v9l-1 1h-34v25h28l1 1v9l-12 1h-17v22h35l1 4-2 7h-46l-1-1v-68l-4-1v-8z" fill="#7A4CEA"/>
<path transform="translate(1714,276)" d="m0 0h10l10 3 5 4-1 5-5 6-9-5h-8l-6 4-1 1v7l5 4 19 9 8 6 3 4 1 3v10l-4 8-8 7-7 3-5 1h-10l-11-4-8-6 1-6 4-4 5 1 7 5 3 1h10l7-4 2-3v-6l-6-5-17-8-9-7-4-7v-12l5-8 7-5z" fill="#794DEA"/>
<path transform="translate(793,276)" d="m0 0h10l11 4 4 3-1 5-4 5-5-1-6-3h-8l-6 4-1 7 5 5 20 9 8 6 4 8v7l-3 8-6 7-10 5-5 1h-10l-10-3-9-7v-5l4-5 5 1 8 5 3 1h10l7-4 2-4-1-6-5-4-19-9-9-8-3-7v-7l3-8 8-7z" fill="#794DEA"/>
<path transform="translate(1195,106)" d="m0 0h57l1 1v26l-1 1h-56l-1-1z" fill="#4FAFFA"/>
<path transform="translate(1246,276)" d="m0 0h52v10l-3 1h-17v68l-1 1h-12l-1-4v-32l1-33h-20l-1-1 1-9z" fill="#774FEB"/>
<path transform="translate(1018,276)" d="m0 0h14l2 1v24l-1 44h33l1 3-1 7-1 1h-44l-1-1v-68l-4-2 1-8z" fill="#7A4CEA"/>
<path transform="translate(1360,276)" d="m0 0h15v79l-1 1h-12l-1-1v-67l-4-3 1-8z" fill="#7A4CEA"/>
</svg>
